<mxfile host="app.diagrams.net" agent="Mozilla/5.0 (Windows NT 10.0; Win64; x64; rv:128.0) Gecko/20100101 Firefox/128.0" version="26.2.5">
  <diagram name="Page-1" id="6BdyF85UxQv5OBHt2dnl">
    <mxGraphModel dx="840" dy="496" grid="1" gridSize="10" guides="1" tooltips="1" connect="1" arrows="1" fold="1" page="1" pageScale="1" pageWidth="850" pageHeight="1100" math="0" shadow="0">
      <root>
        <mxCell id="0" />
        <mxCell id="1" parent="0" />
        <mxCell id="aOAZJL3lSvZ-4dVWpA5p-3" value="" style="edgeStyle=orthogonalEdgeStyle;rounded=0;orthogonalLoop=1;jettySize=auto;html=1;" edge="1" parent="1" source="aOAZJL3lSvZ-4dVWpA5p-1" target="aOAZJL3lSvZ-4dVWpA5p-2">
          <mxGeometry relative="1" as="geometry" />
        </mxCell>
        <mxCell id="aOAZJL3lSvZ-4dVWpA5p-1" value="&lt;div&gt;Main Controller&lt;/div&gt;&lt;div&gt;(RPI PI)&lt;/div&gt;" style="rounded=1;whiteSpace=wrap;html=1;fillColor=#1ba1e2;fontColor=#ffffff;strokeColor=#006EAF;fontStyle=1;labelBorderColor=none;textShadow=0;" vertex="1" parent="1">
          <mxGeometry x="40" y="40" width="120" height="40" as="geometry" />
        </mxCell>
        <mxCell id="aOAZJL3lSvZ-4dVWpA5p-9" style="edgeStyle=orthogonalEdgeStyle;rounded=0;orthogonalLoop=1;jettySize=auto;html=1;exitX=0.75;exitY=1;exitDx=0;exitDy=0;entryX=0.75;entryY=0;entryDx=0;entryDy=0;endArrow=none;startFill=0;strokeWidth=5;fillColor=#fa6800;strokeColor=#C73500;" edge="1" parent="1" source="aOAZJL3lSvZ-4dVWpA5p-2" target="aOAZJL3lSvZ-4dVWpA5p-6">
          <mxGeometry relative="1" as="geometry" />
        </mxCell>
        <mxCell id="aOAZJL3lSvZ-4dVWpA5p-2" value="CAN Transceiver " style="rounded=1;whiteSpace=wrap;html=1;fillColor=#d80073;fontColor=#ffffff;strokeColor=#A50040;" vertex="1" parent="1">
          <mxGeometry x="200" y="40" width="120" height="40" as="geometry" />
        </mxCell>
        <mxCell id="aOAZJL3lSvZ-4dVWpA5p-10" style="edgeStyle=orthogonalEdgeStyle;rounded=0;orthogonalLoop=1;jettySize=auto;html=1;exitX=0.75;exitY=0;exitDx=0;exitDy=0;endArrow=none;startFill=0;fillColor=#fa6800;strokeColor=#C73500;strokeWidth=5;" edge="1" parent="1" source="aOAZJL3lSvZ-4dVWpA5p-4">
          <mxGeometry relative="1" as="geometry">
            <mxPoint x="290" y="100" as="targetPoint" />
            <mxPoint x="450" y="150" as="sourcePoint" />
            <Array as="points">
              <mxPoint x="450" y="100" />
            </Array>
          </mxGeometry>
        </mxCell>
        <mxCell id="aOAZJL3lSvZ-4dVWpA5p-4" value="&lt;div&gt;Node&lt;/div&gt;&lt;div&gt;(Some sensor)&lt;br&gt;&lt;/div&gt;" style="rounded=1;whiteSpace=wrap;html=1;fillColor=#008a00;fontColor=#ffffff;strokeColor=#005700;" vertex="1" parent="1">
          <mxGeometry x="360" y="160" width="120" height="40" as="geometry" />
        </mxCell>
        <mxCell id="aOAZJL3lSvZ-4dVWpA5p-6" value="&lt;div&gt;Node&lt;/div&gt;&lt;div&gt;(Some sensor)&lt;br&gt;&lt;/div&gt;" style="rounded=1;whiteSpace=wrap;html=1;fillColor=#008a00;fontColor=#ffffff;strokeColor=#005700;" vertex="1" parent="1">
          <mxGeometry x="200" y="160" width="120" height="40" as="geometry" />
        </mxCell>
        <mxCell id="aOAZJL3lSvZ-4dVWpA5p-11" style="edgeStyle=orthogonalEdgeStyle;rounded=0;orthogonalLoop=1;jettySize=auto;html=1;exitX=0.75;exitY=0;exitDx=0;exitDy=0;strokeWidth=5;endArrow=none;startFill=0;fillColor=#fa6800;strokeColor=#C73500;" edge="1" parent="1" source="aOAZJL3lSvZ-4dVWpA5p-7">
          <mxGeometry relative="1" as="geometry">
            <mxPoint x="450" y="110" as="targetPoint" />
            <Array as="points">
              <mxPoint x="610" y="100" />
              <mxPoint x="450" y="100" />
            </Array>
          </mxGeometry>
        </mxCell>
        <mxCell id="aOAZJL3lSvZ-4dVWpA5p-7" value="&lt;div&gt;Node&lt;/div&gt;&lt;div&gt;(Some sensor)&lt;br&gt;&lt;/div&gt;" style="rounded=1;whiteSpace=wrap;html=1;fillColor=#008a00;fontColor=#ffffff;strokeColor=#005700;" vertex="1" parent="1">
          <mxGeometry x="520" y="160" width="120" height="40" as="geometry" />
        </mxCell>
        <mxCell id="aOAZJL3lSvZ-4dVWpA5p-13" style="edgeStyle=orthogonalEdgeStyle;rounded=0;orthogonalLoop=1;jettySize=auto;html=1;exitX=0.75;exitY=1;exitDx=0;exitDy=0;entryX=0.75;entryY=0;entryDx=0;entryDy=0;endArrow=none;startFill=0;strokeWidth=5;fillColor=#0050ef;strokeColor=#001DBC;" edge="1" parent="1">
          <mxGeometry relative="1" as="geometry">
            <mxPoint x="240" y="80" as="sourcePoint" />
            <mxPoint x="240" y="160" as="targetPoint" />
          </mxGeometry>
        </mxCell>
        <mxCell id="aOAZJL3lSvZ-4dVWpA5p-14" style="edgeStyle=orthogonalEdgeStyle;rounded=0;orthogonalLoop=1;jettySize=auto;html=1;exitX=0.75;exitY=0;exitDx=0;exitDy=0;endArrow=none;startFill=0;fillColor=#0050ef;strokeColor=#001DBC;strokeWidth=5;" edge="1" parent="1">
          <mxGeometry relative="1" as="geometry">
            <mxPoint x="240" y="110" as="targetPoint" />
            <mxPoint x="400" y="160" as="sourcePoint" />
            <Array as="points">
              <mxPoint x="400" y="140" />
              <mxPoint x="240" y="140" />
            </Array>
          </mxGeometry>
        </mxCell>
        <mxCell id="aOAZJL3lSvZ-4dVWpA5p-15" style="edgeStyle=orthogonalEdgeStyle;rounded=0;orthogonalLoop=1;jettySize=auto;html=1;exitX=0.75;exitY=0;exitDx=0;exitDy=0;strokeWidth=5;endArrow=none;startFill=0;fillColor=#0050ef;strokeColor=#001DBC;" edge="1" parent="1">
          <mxGeometry relative="1" as="geometry">
            <mxPoint x="400" y="140" as="targetPoint" />
            <mxPoint x="560" y="160" as="sourcePoint" />
            <Array as="points">
              <mxPoint x="560" y="140" />
            </Array>
          </mxGeometry>
        </mxCell>
        <mxCell id="aOAZJL3lSvZ-4dVWpA5p-16" value="" style="rounded=0;whiteSpace=wrap;html=1;fillColor=none;dashed=1;" vertex="1" parent="1">
          <mxGeometry x="120" y="360" width="360" height="200" as="geometry" />
        </mxCell>
        <mxCell id="aOAZJL3lSvZ-4dVWpA5p-20" style="edgeStyle=orthogonalEdgeStyle;rounded=0;orthogonalLoop=1;jettySize=auto;html=1;exitX=1;exitY=0.5;exitDx=0;exitDy=0;entryX=0;entryY=0.5;entryDx=0;entryDy=0;startArrow=classic;startFill=1;" edge="1" parent="1" source="aOAZJL3lSvZ-4dVWpA5p-17" target="aOAZJL3lSvZ-4dVWpA5p-19">
          <mxGeometry relative="1" as="geometry" />
        </mxCell>
        <mxCell id="aOAZJL3lSvZ-4dVWpA5p-17" value="&lt;b&gt;Analog / Digital Sensor&lt;/b&gt;" style="rounded=1;whiteSpace=wrap;html=1;fillColor=#d80073;fontColor=#ffffff;strokeColor=#A50040;" vertex="1" parent="1">
          <mxGeometry x="160" y="480" width="120" height="40" as="geometry" />
        </mxCell>
        <mxCell id="aOAZJL3lSvZ-4dVWpA5p-18" value="&lt;div&gt;Node&lt;/div&gt;" style="text;html=1;align=center;verticalAlign=middle;whiteSpace=wrap;rounded=0;fontSize=24;" vertex="1" parent="1">
          <mxGeometry x="120" y="330" width="60" height="20" as="geometry" />
        </mxCell>
        <mxCell id="aOAZJL3lSvZ-4dVWpA5p-28" style="edgeStyle=orthogonalEdgeStyle;rounded=0;orthogonalLoop=1;jettySize=auto;html=1;exitX=0.5;exitY=0;exitDx=0;exitDy=0;entryX=0.5;entryY=1;entryDx=0;entryDy=0;startArrow=classic;startFill=1;" edge="1" parent="1" source="aOAZJL3lSvZ-4dVWpA5p-19" target="aOAZJL3lSvZ-4dVWpA5p-21">
          <mxGeometry relative="1" as="geometry" />
        </mxCell>
        <mxCell id="aOAZJL3lSvZ-4dVWpA5p-19" value="MCU&lt;br&gt;(Signal processing)" style="rounded=1;whiteSpace=wrap;html=1;" vertex="1" parent="1">
          <mxGeometry x="320" y="480" width="120" height="40" as="geometry" />
        </mxCell>
        <mxCell id="aOAZJL3lSvZ-4dVWpA5p-24" style="edgeStyle=orthogonalEdgeStyle;rounded=0;orthogonalLoop=1;jettySize=auto;html=1;exitX=0;exitY=0.5;exitDx=0;exitDy=0;entryX=1;entryY=0.5;entryDx=0;entryDy=0;startArrow=classic;startFill=1;" edge="1" parent="1" source="aOAZJL3lSvZ-4dVWpA5p-21" target="aOAZJL3lSvZ-4dVWpA5p-22">
          <mxGeometry relative="1" as="geometry" />
        </mxCell>
        <mxCell id="aOAZJL3lSvZ-4dVWpA5p-21" value="&lt;div&gt;CAN Controller&lt;/div&gt;" style="rounded=1;whiteSpace=wrap;html=1;" vertex="1" parent="1">
          <mxGeometry x="320" y="400" width="120" height="40" as="geometry" />
        </mxCell>
        <mxCell id="aOAZJL3lSvZ-4dVWpA5p-22" value="&lt;div&gt;CAN Transceiver&lt;/div&gt;" style="rounded=1;whiteSpace=wrap;html=1;fillColor=#d80073;fontColor=#ffffff;strokeColor=#A50040;" vertex="1" parent="1">
          <mxGeometry x="160" y="400" width="120" height="40" as="geometry" />
        </mxCell>
        <mxCell id="aOAZJL3lSvZ-4dVWpA5p-29" style="edgeStyle=orthogonalEdgeStyle;rounded=0;orthogonalLoop=1;jettySize=auto;html=1;exitX=0.75;exitY=1;exitDx=0;exitDy=0;entryX=0.75;entryY=0;entryDx=0;entryDy=0;endArrow=none;startFill=0;strokeWidth=5;fillColor=#0050ef;strokeColor=#001DBC;" edge="1" parent="1">
          <mxGeometry relative="1" as="geometry">
            <mxPoint x="190" y="320" as="sourcePoint" />
            <mxPoint x="190" y="400" as="targetPoint" />
          </mxGeometry>
        </mxCell>
        <mxCell id="aOAZJL3lSvZ-4dVWpA5p-30" style="edgeStyle=orthogonalEdgeStyle;rounded=0;orthogonalLoop=1;jettySize=auto;html=1;exitX=0.75;exitY=1;exitDx=0;exitDy=0;entryX=0.75;entryY=0;entryDx=0;entryDy=0;endArrow=none;startFill=0;strokeWidth=5;fillColor=#fa6800;strokeColor=#C73500;" edge="1" parent="1">
          <mxGeometry relative="1" as="geometry">
            <mxPoint x="240" y="320" as="sourcePoint" />
            <mxPoint x="240" y="400" as="targetPoint" />
          </mxGeometry>
        </mxCell>
        <mxCell id="aOAZJL3lSvZ-4dVWpA5p-39" style="edgeStyle=orthogonalEdgeStyle;rounded=0;orthogonalLoop=1;jettySize=auto;html=1;exitX=1;exitY=0.5;exitDx=0;exitDy=0;entryX=0.5;entryY=1;entryDx=0;entryDy=0;fillColor=#d80073;strokeColor=light-dark(#A50040, #ff0000);strokeWidth=5;endArrow=none;startFill=0;" edge="1" parent="1" source="aOAZJL3lSvZ-4dVWpA5p-38" target="aOAZJL3lSvZ-4dVWpA5p-6">
          <mxGeometry relative="1" as="geometry" />
        </mxCell>
        <mxCell id="aOAZJL3lSvZ-4dVWpA5p-40" style="edgeStyle=orthogonalEdgeStyle;rounded=0;orthogonalLoop=1;jettySize=auto;html=1;exitX=1;exitY=0.5;exitDx=0;exitDy=0;entryX=0.5;entryY=1;entryDx=0;entryDy=0;fillColor=#d80073;strokeColor=light-dark(#A50040, #ff0000);strokeWidth=5;endArrow=none;startFill=0;" edge="1" parent="1" source="aOAZJL3lSvZ-4dVWpA5p-38" target="aOAZJL3lSvZ-4dVWpA5p-4">
          <mxGeometry relative="1" as="geometry" />
        </mxCell>
        <mxCell id="aOAZJL3lSvZ-4dVWpA5p-41" style="edgeStyle=orthogonalEdgeStyle;rounded=0;orthogonalLoop=1;jettySize=auto;html=1;exitX=1;exitY=0.5;exitDx=0;exitDy=0;entryX=0.5;entryY=1;entryDx=0;entryDy=0;fillColor=#d80073;strokeColor=light-dark(#A50040, #ff0000);strokeWidth=5;endArrow=none;startFill=0;" edge="1" parent="1" source="aOAZJL3lSvZ-4dVWpA5p-38" target="aOAZJL3lSvZ-4dVWpA5p-7">
          <mxGeometry relative="1" as="geometry" />
        </mxCell>
        <mxCell id="aOAZJL3lSvZ-4dVWpA5p-42" style="edgeStyle=orthogonalEdgeStyle;rounded=0;orthogonalLoop=1;jettySize=auto;html=1;exitX=0.5;exitY=0;exitDx=0;exitDy=0;entryX=0.5;entryY=1;entryDx=0;entryDy=0;fillColor=#d80073;strokeColor=light-dark(#A50040, #ff0000);strokeWidth=5;endArrow=none;startFill=0;" edge="1" parent="1" source="aOAZJL3lSvZ-4dVWpA5p-38" target="aOAZJL3lSvZ-4dVWpA5p-1">
          <mxGeometry relative="1" as="geometry">
            <mxPoint x="100" y="100" as="targetPoint" />
          </mxGeometry>
        </mxCell>
        <mxCell id="aOAZJL3lSvZ-4dVWpA5p-38" value="&lt;div&gt;Supply&lt;/div&gt;&lt;div&gt;(BMS)&lt;/div&gt;" style="rounded=1;whiteSpace=wrap;html=1;" vertex="1" parent="1">
          <mxGeometry x="40" y="240" width="120" height="40" as="geometry" />
        </mxCell>
        <mxCell id="aOAZJL3lSvZ-4dVWpA5p-43" style="edgeStyle=orthogonalEdgeStyle;rounded=0;orthogonalLoop=1;jettySize=auto;html=1;exitX=0.75;exitY=1;exitDx=0;exitDy=0;entryX=0.75;entryY=0;entryDx=0;entryDy=0;endArrow=none;startFill=0;strokeWidth=5;fillColor=#fa6800;strokeColor=light-dark(#C73500, #ff0000);" edge="1" parent="1">
          <mxGeometry relative="1" as="geometry">
            <mxPoint x="379.71000000000004" y="320" as="sourcePoint" />
            <mxPoint x="379.71000000000004" y="400" as="targetPoint" />
          </mxGeometry>
        </mxCell>
        <mxCell id="aOAZJL3lSvZ-4dVWpA5p-44" value="&lt;div&gt;RX&lt;/div&gt;" style="text;html=1;align=center;verticalAlign=middle;whiteSpace=wrap;rounded=0;" vertex="1" parent="1">
          <mxGeometry x="170" y="300" width="40" height="20" as="geometry" />
        </mxCell>
        <mxCell id="aOAZJL3lSvZ-4dVWpA5p-45" value="&lt;div&gt;TX&lt;/div&gt;" style="text;html=1;align=center;verticalAlign=middle;whiteSpace=wrap;rounded=0;" vertex="1" parent="1">
          <mxGeometry x="260" y="90" width="30" height="20" as="geometry" />
        </mxCell>
        <mxCell id="aOAZJL3lSvZ-4dVWpA5p-47" value="&lt;div&gt;Vcc&lt;/div&gt;" style="text;html=1;align=center;verticalAlign=middle;whiteSpace=wrap;rounded=0;" vertex="1" parent="1">
          <mxGeometry x="160" y="240" width="40" height="20" as="geometry" />
        </mxCell>
        <mxCell id="aOAZJL3lSvZ-4dVWpA5p-48" value="&lt;div&gt;Vcc&lt;/div&gt;" style="text;html=1;align=center;verticalAlign=middle;whiteSpace=wrap;rounded=0;" vertex="1" parent="1">
          <mxGeometry x="360" y="300" width="40" height="20" as="geometry" />
        </mxCell>
        <mxCell id="aOAZJL3lSvZ-4dVWpA5p-50" value="&lt;div&gt;RX&lt;/div&gt;" style="text;html=1;align=center;verticalAlign=middle;whiteSpace=wrap;rounded=0;" vertex="1" parent="1">
          <mxGeometry x="210" y="130" width="30" height="20" as="geometry" />
        </mxCell>
        <mxCell id="aOAZJL3lSvZ-4dVWpA5p-51" value="&lt;div&gt;TX&lt;/div&gt;" style="text;html=1;align=center;verticalAlign=middle;whiteSpace=wrap;rounded=0;" vertex="1" parent="1">
          <mxGeometry x="220" y="300" width="40" height="20" as="geometry" />
        </mxCell>
      </root>
    </mxGraphModel>
  </diagram>
</mxfile>
